<svg width="19" height="21" viewBox="0 0 19 21" fill="none" xmlns="http://www.w3.org/2000/svg">
<path fill-rule="evenodd" clip-rule="evenodd" d="M8.98035 0.333328C10.4641 0.333328 11.6559 0.333328 12.6272 0.404674C12.5073 0.697098 12.4411 1.01729 12.4411 1.35294V1.91176L11.8823 1.91176C10.5016 1.91176 9.3823 3.03105 9.3823 4.41176C9.3823 5.79248 10.5016 6.91176 11.8823 6.91176H12.4411V7.47059C12.4411 8.8513 13.5604 9.97059 14.9411 9.97059C15.7828 9.97059 16.5273 9.55467 16.9804 8.91714V12.7255C16.9804 16.4967 16.9804 18.3823 15.8088 19.5539C14.6372 20.7255 12.7516 20.7255 8.98036 20.7255H8.66663C4.89539 20.7255 3.00977 20.7255 1.8382 19.5539C0.666626 18.3823 0.666626 16.4967 0.666626 12.7255V8.33333C0.666626 4.56209 0.666626 2.67647 1.8382 1.5049C3.00977 0.333328 4.89539 0.333328 8.66663 0.333328H8.98035ZM4.74507 9.52942C4.19279 9.52942 3.74507 9.97713 3.74507 10.5294C3.74507 11.0817 4.19279 11.5294 4.74507 11.5294H8.82351C9.37579 11.5294 9.82351 11.0817 9.82351 10.5294C9.82351 9.97713 9.37579 9.52942 8.82351 9.52942H4.74507ZM4.74507 12.5882C4.19279 12.5882 3.74507 13.036 3.74507 13.5882C3.74507 14.1405 4.19279 14.5882 4.74507 14.5882L10.8627 14.5882C11.415 14.5882 11.8627 14.1405 11.8627 13.5882C11.8627 13.036 11.415 12.5882 10.8627 12.5882L4.74507 12.5882ZM4.74507 15.6471C4.19279 15.6471 3.74507 16.0948 3.74507 16.6471C3.74507 17.1994 4.19279 17.6471 4.74507 17.6471H8.82351C9.37579 17.6471 9.82351 17.1994 9.82351 16.6471C9.82351 16.0948 9.37579 15.6471 8.82351 15.6471H4.74507Z" fill="white"/>
<path d="M14.9412 1.35294L14.9412 7.47058" stroke="white" stroke-width="2" stroke-linecap="round"/>
<path d="M18 4.41176L11.8824 4.41176" stroke="white" stroke-width="2" stroke-linecap="round"/>
</svg>
