<svg width="62" height="62" viewBox="0 0 62 62" fill="none" xmlns="http://www.w3.org/2000/svg">
<path d="M7.75 31C7.75 18.1594 18.1594 7.75 31 7.75C43.8406 7.75 54.25 18.1594 54.25 31C54.25 43.8406 43.8406 54.25 31 54.25C18.1594 54.25 7.75 43.8406 7.75 31Z" fill="#003470"/>
<ellipse cx="31" cy="25.8333" rx="10.3333" ry="10.3333" fill="white"/>
<path fill-rule="evenodd" clip-rule="evenodd" d="M47.8738 48.6645C47.9172 48.7608 47.8939 48.8738 47.8163 48.9455C44.8427 51.6913 41.0305 53.5439 36.7957 54.0873C35.5281 54.25 34.0187 54.25 31 54.25C27.9814 54.25 26.472 54.25 25.2044 54.0873C20.9697 53.5439 17.1576 51.6914 14.184 48.9457C14.1064 48.8741 14.0831 48.761 14.1265 48.6647C16.7416 42.8642 23.3103 38.75 31.0002 38.75C38.69 38.75 45.2587 42.8641 47.8738 48.6645Z" fill="white"/>
</svg>
